<svg width="20" height="20" viewBox="0 0 20 20" xmlns="http://www.w3.org/2000/svg" xmlns:xlink="http://www.w3.org/1999/xlink" overflow="hidden"><path d="M10 0C4.486 0 0 4.486 0 10 0 15.514 4.486 20 10 20 15.514 20 20 15.514 20 10 20 4.486 15.514 0 10 0M12.293 7.293 9 10.586 7.707 9.293C7.32332 8.89575 6.69025 8.88474 6.293 9.26842 5.89575 9.6521 5.88474 10.2852 6.26842 10.6824 6.27647 10.6908 6.28467 10.699 6.293 10.707L8.293 12.707C8.68124 13.0975 9.3125 13.0993 9.70297 12.711 9.70431 12.7097 9.70566 12.7083 9.707 12.707L13.707 8.707C14.1043 8.32332 14.1153 7.69025 13.7316 7.293 13.3479 6.89575 12.7148 6.88474 12.3176 7.26842 12.3092 7.27647 12.301 7.28467 12.293 7.293" fill="#0A58CA" fill-rule="evenodd"/></svg>