<svg width="20" height="20" viewBox="0 0 20 20" xmlns="http://www.w3.org/2000/svg" xmlns:xlink="http://www.w3.org/1999/xlink" overflow="hidden"><path d="M10 20C15.514 20 20 15.514 20 10 20 4.486 15.514 0 10 0 4.486 0 0 4.486 0 10 0 15.514 4.486 20 10 20ZM10 2C14.411 2 18 5.589 18 10 18 14.411 14.411 18 10 18 5.589 18 2 14.411 2 10 2 5.589 5.589 2 10 2ZM10 15C12.7614 15 15 12.7614 15 10 15 7.23858 12.7614 5 10 5 7.23858 5 5 7.23858 5 10 5 12.7614 7.23858 15 10 15Z" fill="#0A58CA" fill-rule="evenodd"/></svg>