<svg xmlns="http://www.w3.org/2000/svg" width="32" height="32" viewBox="0 0 32 32">
    <path fill="#DCDBE4" fill-rule="evenodd" d="M28.471 32H3.53c-.971 0-1.894-.422-2.529-1.157l-.026-.03A4 4 0 0 1 0 28.198V8.607A4 4 0 0 1 .974 5.99L1 5.96a3.343 3.343 0 0 1 2.529-1.156h2.534a2 2 0 0 0 1.537-.72L10.4.72A2 2 0 0 1 11.937 0h8.126A2 2 0 0 1 21.6.72l2.8 3.363a2 2 0 0 0 1.537.72h2.534c.971 0 1.894.423 2.529 1.157l.026.03A4 4 0 0 1 32 8.606v19.591a4 4 0 0 1-.974 2.617l-.026.03A3.343 3.343 0 0 1 28.471 32zM16 9.6a8 8 0 1 1 0 16 8 8 0 0 1 0-16zm0 12.8c2.647 0 4.8-2.153 4.8-4.8s-2.153-4.8-4.8-4.8a4.805 4.805 0 0 0-4.8 4.8c0 2.647 2.153 4.8 4.8 4.8z"/>
</svg>
