<svg width="312" height="34" xmlns="http://www.w3.org/2000/svg" xmlns:xlink="http://www.w3.org/1999/xlink" overflow="hidden"><defs><clipPath id="clip0"><rect x="230" y="361" width="312" height="34"/></clipPath></defs><g clip-path="url(#clip0)" transform="translate(-230 -361)"><path d="M231.5 378.5C231.5 371.32 237.32 365.5 244.5 365.5L527.5 365.5C534.68 365.5 540.5 371.32 540.5 378.5L540.5 378.5C540.5 385.68 534.68 391.5 527.5 391.5L244.5 391.5C237.32 391.5 231.5 385.68 231.5 378.5Z" stroke="#E8ECEF" stroke-width="1.33333" stroke-miterlimit="8" fill="#E8ECEF" fill-rule="evenodd"/><path d="M231.5 378.5 231.5 378.5C231.5 371.32 237.32 365.5 244.5 365.5L286.5 365.5 286.5 391.5 244.5 391.5C237.32 391.5 231.5 385.68 231.5 378.5Z" stroke="#082A60" stroke-width="1.33333" stroke-miterlimit="8" fill="#082A60" fill-rule="evenodd"/><rect x="383" y="361" width="5" height="34" fill="#FFFFFF"/><rect x="305" y="361" width="5" height="34" fill="#FFFFFF"/><rect x="462" y="361" width="5" height="34" fill="#FFFFFF"/><rect x="501" y="361" width="5" height="34" fill="#FFFFFF"/><rect x="423" y="361" width="4" height="34" fill="#FFFFFF"/><rect x="344" y="361" width="5" height="34" fill="#FFFFFF"/><rect x="266" y="361" width="5" height="34" fill="#FFFFFF"/><rect x="521" y="361" width="4" height="34" fill="#FFFFFF"/><rect x="482" y="361" width="4" height="34" fill="#FFFFFF"/><rect x="442" y="361" width="5" height="34" fill="#FFFFFF"/><rect x="403" y="361" width="5" height="34" fill="#FFFFFF"/><rect x="364" y="361" width="4" height="34" fill="#FFFFFF"/><rect x="325" y="361" width="5" height="34" fill="#FFFFFF"/><rect x="286" y="361" width="5" height="34" fill="#FFFFFF"/><rect x="246" y="361" width="5" height="34" fill="#FFFFFF"/></g></svg>