<svg width="312" height="35" xmlns="http://www.w3.org/2000/svg" xmlns:xlink="http://www.w3.org/1999/xlink" overflow="hidden"><defs><clipPath id="clip0"><rect x="226" y="594" width="312" height="35"/></clipPath></defs><g clip-path="url(#clip0)" transform="translate(-226 -594)"><path d="M227.5 611.5C227.5 604.32 233.32 598.5 240.5 598.5L523.5 598.5C530.68 598.5 536.5 604.32 536.5 611.5L536.5 611.5C536.5 618.68 530.68 624.5 523.5 624.5L240.5 624.5C233.32 624.5 227.5 618.68 227.5 611.5Z" stroke="#42BEFC" stroke-width="1.33333" stroke-miterlimit="8" fill="#42BEFC" fill-rule="evenodd"/><rect x="379" y="595" width="5" height="33" fill="#FFFFFF"/><rect x="301" y="595" width="5" height="33" fill="#FFFFFF"/><rect x="458" y="595" width="5" height="33" fill="#FFFFFF"/><rect x="497" y="595" width="5" height="33" fill="#FFFFFF"/><rect x="418" y="595" width="5" height="33" fill="#FFFFFF"/><rect x="340" y="595" width="5" height="33" fill="#FFFFFF"/><rect x="262" y="595" width="5" height="33" fill="#FFFFFF"/><rect x="516" y="595" width="5" height="33" fill="#FFFFFF"/><rect x="477" y="595" width="5" height="33" fill="#FFFFFF"/><rect x="438" y="595" width="5" height="33" fill="#FFFFFF"/><rect x="399" y="595" width="5" height="33" fill="#FFFFFF"/><rect x="359" y="595" width="5" height="33" fill="#FFFFFF"/><rect x="320" y="595" width="5" height="33" fill="#FFFFFF"/><rect x="282" y="595" width="4" height="33" fill="#FFFFFF"/><rect x="242" y="595" width="5" height="33" fill="#FFFFFF"/></g></svg>