<svg width="311" height="35" xmlns="http://www.w3.org/2000/svg" xmlns:xlink="http://www.w3.org/1999/xlink" overflow="hidden"><defs><clipPath id="clip0"><rect x="230" y="419" width="311" height="35"/></clipPath></defs><g clip-path="url(#clip0)" transform="translate(-230 -419)"><path d="M231.5 437.5C231.5 430.32 237.32 424.5 244.5 424.5L527.5 424.5C534.68 424.5 540.5 430.32 540.5 437.5L540.5 437.5C540.5 444.68 534.68 450.5 527.5 450.5L244.5 450.5C237.32 450.5 231.5 444.68 231.5 437.5Z" stroke="#E8ECEF" stroke-width="1.33333" stroke-miterlimit="8" fill="#E8ECEF" fill-rule="evenodd"/><path d="M231.5 437.5 231.5 437.5C231.5 430.32 237.32 424.5 244.5 424.5L345.5 424.5 345.5 450.5 244.5 450.5C237.32 450.5 231.5 444.68 231.5 437.5Z" stroke="#0D47A1" stroke-width="1.33333" stroke-miterlimit="8" fill="#0D47A1" fill-rule="evenodd"/><rect x="383" y="420" width="5" height="33" fill="#FFFFFF"/><rect x="304" y="420" width="5" height="33" fill="#FFFFFF"/><rect x="462" y="420" width="4" height="33" fill="#FFFFFF"/><rect x="501" y="420" width="4" height="33" fill="#FFFFFF"/><rect x="422" y="420" width="5" height="33" fill="#FFFFFF"/><rect x="344" y="420" width="4" height="33" fill="#FFFFFF"/><rect x="266" y="420" width="4" height="33" fill="#FFFFFF"/><rect x="520" y="420" width="5" height="33" fill="#FFFFFF"/><rect x="481" y="420" width="5" height="33" fill="#FFFFFF"/><rect x="442" y="420" width="5" height="33" fill="#FFFFFF"/><rect x="403" y="420" width="5" height="33" fill="#FFFFFF"/><rect x="363" y="420" width="5" height="33" fill="#FFFFFF"/><rect x="324" y="420" width="5" height="33" fill="#FFFFFF"/><rect x="285" y="420" width="5" height="33" fill="#FFFFFF"/><rect x="246" y="420" width="5" height="33" fill="#FFFFFF"/></g></svg>