<svg width="312" height="35" xmlns="http://www.w3.org/2000/svg" xmlns:xlink="http://www.w3.org/1999/xlink" overflow="hidden"><defs><clipPath id="clip0"><rect x="228" y="476" width="312" height="35"/></clipPath></defs><g clip-path="url(#clip0)" transform="translate(-228 -476)"><path d="M229.5 494.5C229.5 487.32 235.32 481.5 242.5 481.5L525.5 481.5C532.68 481.5 538.5 487.32 538.5 494.5L538.5 494.5C538.5 501.68 532.68 507.5 525.5 507.5L242.5 507.5C235.32 507.5 229.5 501.68 229.5 494.5Z" stroke="#E8ECEF" stroke-width="1.33333" stroke-miterlimit="8" fill="#E8ECEF" fill-rule="evenodd"/><path d="M229.5 494.5 229.5 494.5C229.5 487.32 235.32 481.5 242.5 481.5L404.5 481.5 404.5 507.5 242.5 507.5C235.32 507.5 229.5 501.68 229.5 494.5Z" stroke="#0A58CA" stroke-width="1.33333" stroke-miterlimit="8" fill="#0A58CA" fill-rule="evenodd"/><rect x="382" y="477" width="4" height="33" fill="#FFFFFF"/><rect x="303" y="477" width="5" height="33" fill="#FFFFFF"/><rect x="460" y="477" width="5" height="33" fill="#FFFFFF"/><rect x="499" y="477" width="5" height="33" fill="#FFFFFF"/><rect x="421" y="477" width="4" height="33" fill="#FFFFFF"/><rect x="342" y="477" width="5" height="33" fill="#FFFFFF"/><rect x="264" y="477" width="5" height="33" fill="#FFFFFF"/><rect x="519" y="477" width="5" height="33" fill="#FFFFFF"/><rect x="480" y="477" width="4" height="33" fill="#FFFFFF"/><rect x="440" y="477" width="5" height="33" fill="#FFFFFF"/><rect x="401" y="477" width="5" height="33" fill="#FFFFFF"/><rect x="362" y="477" width="5" height="33" fill="#FFFFFF"/><rect x="323" y="477" width="5" height="33" fill="#FFFFFF"/><rect x="284" y="477" width="5" height="33" fill="#FFFFFF"/><rect x="244" y="477" width="5" height="33" fill="#FFFFFF"/></g></svg>