<svg width="311" height="34" xmlns="http://www.w3.org/2000/svg" xmlns:xlink="http://www.w3.org/1999/xlink" overflow="hidden"><defs><clipPath id="clip0"><rect x="221" y="532" width="311" height="34"/></clipPath></defs><g clip-path="url(#clip0)" transform="translate(-221 -532)"><path d="M222.5 549.5C222.5 542.32 228.32 536.5 235.5 536.5L518.5 536.5C525.68 536.5 531.5 542.32 531.5 549.5L531.5 549.5C531.5 556.68 525.68 562.5 518.5 562.5L235.5 562.5C228.32 562.5 222.5 556.68 222.5 549.5Z" stroke="#E8ECEF" stroke-width="1.33333" stroke-miterlimit="8" fill="#E8ECEF" fill-rule="evenodd"/><path d="M222.5 549.5 222.5 549.5C222.5 542.32 228.32 536.5 235.5 536.5L455.5 536.5 455.5 562.5 235.5 562.5C228.32 562.5 222.5 556.68 222.5 549.5Z" stroke="#039BE5" stroke-width="1.33333" stroke-miterlimit="8" fill="#039BE5" fill-rule="evenodd"/><rect x="374" y="532" width="5" height="33" fill="#FFFFFF"/><rect x="295" y="532" width="5" height="33" fill="#FFFFFF"/><rect x="452" y="532" width="5" height="33" fill="#FFFFFF"/><rect x="492" y="532" width="4" height="33" fill="#FFFFFF"/><rect x="413" y="532" width="5" height="33" fill="#FFFFFF"/><rect x="334" y="532" width="5" height="33" fill="#FFFFFF"/><rect x="256" y="532" width="5" height="33" fill="#FFFFFF"/><rect x="511" y="532" width="5" height="33" fill="#FFFFFF"/><rect x="472" y="532" width="5" height="33" fill="#FFFFFF"/><rect x="433" y="532" width="5" height="33" fill="#FFFFFF"/><rect x="394" y="532" width="5" height="33" fill="#FFFFFF"/><rect x="354" y="532" width="5" height="33" fill="#FFFFFF"/><rect x="315" y="532" width="5" height="33" fill="#FFFFFF"/><rect x="276" y="532" width="5" height="33" fill="#FFFFFF"/><rect x="237" y="532" width="5" height="33" fill="#FFFFFF"/></g></svg>