<svg xmlns="http://www.w3.org/2000/svg" width="14" height="14" viewBox="0 0 14 14">
    <path fill="#9B99A9" fill-rule="evenodd" d="M14 7c0 3.86-3.14 7-7 7s-7-3.14-7-7 3.14-7 7-7 7 3.14 7 7zm-1.4 0c0-3.088-2.512-5.6-5.6-5.6-3.088 0-5.6 2.512-5.6 5.6 0 3.088 2.512 5.6 5.6 5.6 3.088 0 5.6-2.512 5.6-5.6zM6.3 7V4.2c0-.387.313-.7.7-.7.387 0 .7.313.7.7V7c0 .387-.313.7-.7.7-.387 0-.7-.313-.7-.7zm1.47 2.8c0 .425-.345.77-.77.77-.425 0-.77-.345-.77-.77 0-.425.345-.77.77-.77.425 0 .77.345.77.77z"/>
</svg>
